<svg width="20" height="20" viewBox="0 0 20 20" fill="none" xmlns="http://www.w3.org/2000/svg">
<g clip-path="url(#clip0_11_8106)">
<path d="M19.8779 9.70509L13.6279 3.45509C13.4652 3.29231 13.2015 3.29231 13.0387 3.45509C12.876 3.61786 12.876 3.88153 13.0387 4.04427L18.5775 9.58302H0.41668C0.186367 9.58302 0 9.76938 0 9.9997C0 10.23 0.186367 10.4164 0.41668 10.4164H18.5775L13.0387 15.9551C12.876 16.1179 12.876 16.3815 13.0387 16.5443C13.1201 16.6256 13.2268 16.6663 13.3334 16.6663C13.44 16.6663 13.5466 16.6256 13.628 16.5443L19.878 10.2943C20.0407 10.1315 20.0407 9.86786 19.8779 9.70509Z" fill="white"/>
</g>
<defs>
<clipPath id="clip0_11_8106">
<rect width="20" height="20" fill="white"/>
</clipPath>
</defs>
</svg>
