<svg width="58" height="57" viewBox="0 0 58 57" fill="none" xmlns="http://www.w3.org/2000/svg">
<path d="M29.25 39H23.5V55.5H29.25M29.25 39H35V55.5H29.25M29.25 39V55.5M19 23.5H26.5V31H19M19 23.5H11.5V31H19M19 23.5V31M19 10.5H11.5V17.5H19M19 10.5V17.5M19 10.5H22.75H26.5V17.5H19M40 23.5H32.5V31H40M40 23.5V31M40 23.5H47.5V31H40M40 10.5H32.5V17.5H40M40 10.5V17.5M40 10.5H43.75H47.5V17.5H40M1 55.5H57M7.5 55.5V5H51V55.5H7.5ZM11.5 39V46.5H19.5V39H11.5ZM39.5 39V46.5H47.5V39H39.5ZM4.5 5V1H54V5H4.5Z" stroke="black" stroke-opacity="0.5" stroke-width="2" stroke-linecap="round" stroke-linejoin="round"/>
</svg>
