<svg width="59" height="58" viewBox="0 0 59 58" fill="none" xmlns="http://www.w3.org/2000/svg">
<path d="M29.2448 31.6967C30.6259 31.6967 31.7455 30.5797 31.7455 29.2019C31.7455 27.824 30.6259 26.707 29.2448 26.707C27.8637 26.707 26.7441 27.824 26.7441 29.2019C26.7441 30.5797 27.8637 31.6967 29.2448 31.6967Z" stroke="#232323" stroke-width="2" stroke-linecap="round" stroke-linejoin="round"/>
<path d="M39.3532 35.0203C39.1125 35.4464 38.7895 35.8205 38.4028 36.1212C38.0161 36.4218 37.5734 36.6428 37.1005 36.7714C36.6275 36.9001 36.1337 36.9338 35.6476 36.8706C35.1615 36.8074 34.6928 36.6485 34.2686 36.4032C33.6476 36.0492 30.9418 33.3165 30.9418 33.3165C30.4804 32.8852 29.8719 32.6451 29.2396 32.6451C28.6073 32.6451 27.9987 32.8852 27.5374 33.3165C27.5374 33.3165 24.8204 36.0492 24.2105 36.4032C23.7883 36.6643 23.3177 36.8382 22.8268 36.9144C22.3359 36.9906 21.8347 36.9677 21.3529 36.847C20.871 36.7263 20.4184 36.5102 20.0218 36.2117C19.6253 35.9131 19.2929 35.5381 19.0444 35.1089C18.7958 34.6798 18.6363 34.2052 18.5751 33.7133C18.5139 33.2214 18.5524 32.7223 18.6883 32.2455C18.8242 31.7688 19.0546 31.3241 19.366 30.9379C19.6775 30.5517 20.0634 30.2319 20.5011 29.9974C21.1166 29.6101 24.8426 28.6587 24.8426 28.6587C25.4469 28.4722 25.9582 28.0647 26.274 27.5179C26.5897 26.971 26.6864 26.3253 26.5449 25.7102C26.5449 25.7102 25.5246 22.0039 25.5246 21.2848C25.5246 20.3033 25.9154 19.3619 26.6111 18.6679C27.3067 17.9739 28.2502 17.584 29.234 17.584C30.2178 17.584 31.1613 17.9739 31.857 18.6679C32.5526 19.3619 32.9435 20.3033 32.9435 21.2848C32.9435 22.0039 31.9232 25.7102 31.9232 25.7102C31.7822 26.3267 31.8805 26.9737 32.1984 27.5208C32.5163 28.0679 33.0302 28.4745 33.6366 28.6587C33.6366 28.6587 37.3737 29.6323 37.9947 29.9918C38.8384 30.4834 39.4541 31.2867 39.7083 32.2279C39.9626 33.1691 39.835 34.1723 39.3532 35.0203V35.0203Z" stroke="#232323" stroke-width="2" stroke-linecap="round" stroke-linejoin="round"/>
<path d="M37.3512 46.7923C33.7496 48.4434 29.7275 48.9547 25.8259 48.2573C21.9244 47.5599 18.3304 45.6873 15.5273 42.8914C12.7243 40.0955 10.8466 36.5103 10.1467 32.6179C9.44686 28.7256 9.95843 24.7128 11.6126 21.1191" stroke="#232323" stroke-width="2" stroke-linecap="round" stroke-linejoin="round"/>
<path d="M21.1387 11.6151C24.7403 9.96401 28.7624 9.45276 32.664 10.1501C36.5655 10.8475 40.1595 12.7201 42.9626 15.516C45.7656 18.312 47.6433 21.8972 48.3432 25.7895C49.043 29.6818 48.5315 33.6946 46.8773 37.2883" stroke="#232323" stroke-width="2" stroke-linecap="round" stroke-linejoin="round"/>
<path d="M29.2453 44.7014C37.8258 44.7014 44.7816 37.7618 44.7816 29.2013C44.7816 20.6408 37.8258 13.7012 29.2453 13.7012C20.6648 13.7012 13.709 20.6408 13.709 29.2013C13.709 37.7618 20.6648 44.7014 29.2453 44.7014Z" stroke="#232323" stroke-width="2" stroke-linecap="round" stroke-linejoin="round"/>
<path d="M12.8216 12.5223C12.8216 14.0129 12.228 15.4425 11.1716 16.4965C10.1151 17.5505 8.6822 18.1426 7.18812 18.1426C5.69404 18.1426 4.26116 17.5505 3.20468 16.4965C2.14821 15.4425 1.55469 14.0129 1.55469 12.5223C1.55469 9.41897 7.18812 1.55273 7.18812 1.55273C7.18812 1.55273 12.8216 9.41897 12.8216 12.5223Z" stroke="#232323" stroke-width="2" stroke-linecap="round" stroke-linejoin="round"/>
<path d="M10.077 15.2616C10.0068 15.9737 9.67365 16.6343 9.14227 17.1149C8.61088 17.5955 7.91931 17.8617 7.20209 17.8617C6.48486 17.8617 5.79329 17.5955 5.2619 17.1149C4.73052 16.6343 4.39733 15.9737 4.32715 15.2616C4.32715 13.6684 7.21595 9.63574 7.21595 9.63574C7.21595 9.63574 10.077 13.6684 10.077 15.2616Z" stroke="#232323" stroke-width="2" stroke-linecap="round" stroke-linejoin="round"/>
<path d="M50.1095 40.8901L51.1796 45.2215C51.1949 45.2841 51.2229 45.3429 51.2617 45.3944C51.3005 45.4458 51.3494 45.4889 51.4054 45.521C51.4614 45.5531 51.5233 45.5734 51.5874 45.5809C51.6515 45.5884 51.7165 45.5828 51.7784 45.5645L56.07 44.3253C57.0958 44.0266 57.3065 44.3862 56.5358 45.1275L53.3088 48.2142C53.263 48.2595 53.2267 48.3133 53.2019 48.3727C53.1771 48.432 53.1643 48.4957 53.1643 48.5599C53.1643 48.6242 53.1771 48.6879 53.2019 48.7472C53.2267 48.8066 53.263 48.8604 53.3088 48.9057L56.5358 51.9924C57.3065 52.7337 57.0903 53.0988 56.07 52.7945L51.7784 51.5554C51.7169 51.537 51.6523 51.5312 51.5885 51.5383C51.5246 51.5455 51.4629 51.5654 51.407 51.5969C51.351 51.6284 51.3021 51.6709 51.263 51.7217C51.2239 51.7726 51.1956 51.8308 51.1796 51.8929L50.1095 56.2243C49.8544 57.2587 49.4386 57.2587 49.1835 56.2243L48.13 51.8929C48.1146 51.8303 48.0867 51.7715 48.0479 51.72C48.0091 51.6685 47.9602 51.6255 47.9042 51.5934C47.8482 51.5613 47.7863 51.5409 47.7222 51.5335C47.658 51.526 47.5931 51.5316 47.5312 51.5499L43.2396 52.789C42.2082 53.0877 42.0031 52.7282 42.7738 51.9869L45.9953 48.9002C46.0424 48.8557 46.08 48.8021 46.1057 48.7426C46.1313 48.6832 46.1446 48.6191 46.1446 48.5544C46.1446 48.4897 46.1313 48.4256 46.1057 48.3662C46.08 48.3067 46.0424 48.2531 45.9953 48.2087L42.7738 45.1219C42.0031 44.3807 42.2193 44.0156 43.2396 44.3198L47.5312 45.5589C47.5927 45.5773 47.6573 45.5832 47.7211 45.576C47.785 45.5689 47.8467 45.549 47.9026 45.5175C47.9586 45.486 48.0075 45.4435 48.0466 45.3926C48.0857 45.3418 48.114 45.2836 48.13 45.2215L49.2001 40.8901C49.4386 39.8556 49.8544 39.8556 50.1095 40.8901Z" stroke="#232323" stroke-width="2" stroke-linecap="round" stroke-linejoin="round"/>
<path d="M37.7378 3.82812H26.5098" stroke="#232323" stroke-width="2" stroke-linecap="round" stroke-linejoin="round"/>
<path d="M22.731 3.82812H21.7861" stroke="#232323" stroke-width="2" stroke-linecap="round" stroke-linejoin="round"/>
<path d="M19.8965 54.1768H31.3519" stroke="#232323" stroke-width="2" stroke-linecap="round" stroke-linejoin="round"/>
<path d="M35.0508 54.1768H35.9956" stroke="#232323" stroke-width="2" stroke-linecap="round" stroke-linejoin="round"/>
</svg>
