<svg width="58" height="58" viewBox="0 0 58 58" fill="none" xmlns="http://www.w3.org/2000/svg">
<path d="M15.956 32.6787L7.70801 56.9995L33.4038 25.3203H18.4477" stroke="#232323" stroke-width="2" stroke-linecap="round" stroke-linejoin="round"/>
<path d="M18.4479 25.3208L26.6902 1L1 32.6792H10.6086" stroke="#232323" stroke-width="2" stroke-linecap="round" stroke-linejoin="round"/>
<path d="M45.7061 52.7439C43.0843 53.5921 40.2389 53.4186 37.7395 52.2581C35.2401 51.0975 33.2713 49.0357 32.2272 46.4853C31.183 43.935 31.1406 41.0843 32.1085 38.504C33.0763 35.9237 34.983 33.8042 37.4467 32.5699C39.9105 31.3355 42.7495 31.0774 45.3954 31.8473C48.0413 32.6171 50.2988 34.358 51.716 36.7215C53.1332 39.0849 53.6055 41.8965 53.0383 44.5934C52.471 47.2903 50.9062 49.6733 48.6571 51.2655" stroke="#232323" stroke-width="2" stroke-linecap="round" stroke-linejoin="round"/>
<path d="M49.1768 42.3174H53.2755" stroke="#232323" stroke-width="2" stroke-linecap="round" stroke-linejoin="round"/>
<path d="M47.167 47.1719L50.0675 50.0724" stroke="#232323" stroke-width="2" stroke-linecap="round" stroke-linejoin="round"/>
<path d="M42.3135 49.1816V53.2804" stroke="#232323" stroke-width="2" stroke-linecap="round" stroke-linejoin="round"/>
<path d="M37.464 47.1719L34.5635 50.0724" stroke="#232323" stroke-width="2" stroke-linecap="round" stroke-linejoin="round"/>
<path d="M47.167 37.4669L50.0675 34.5664" stroke="#232323" stroke-width="2" stroke-linecap="round" stroke-linejoin="round"/>
<path d="M42.3135 35.4572V31.3584" stroke="#232323" stroke-width="2" stroke-linecap="round" stroke-linejoin="round"/>
<path d="M37.464 37.4669L34.5635 34.5664" stroke="#232323" stroke-width="2" stroke-linecap="round" stroke-linejoin="round"/>
<path d="M35.4533 42.3174H31.3545" stroke="#232323" stroke-width="2" stroke-linecap="round" stroke-linejoin="round"/>
<path d="M35.7167 29.1961C38.5712 27.759 41.8165 27.2925 44.9601 27.8676C48.1037 28.4427 50.9739 30.0278 53.1348 32.3825C55.2958 34.7371 56.6295 37.7326 56.9336 40.9142C57.2376 44.0957 56.4954 47.2897 54.8195 50.011C53.1437 52.7324 50.6257 54.8326 47.6479 55.9928C44.6702 57.153 41.3952 57.3098 38.3202 56.4394C35.2452 55.569 32.5382 53.719 30.6101 51.1702C28.6819 48.6214 27.638 45.513 27.6367 42.3169C27.6369 41.0586 27.7968 39.8053 28.1127 38.5873" stroke="#232323" stroke-width="2" stroke-linecap="round" stroke-linejoin="round"/>
</svg>
