<svg width="58" height="58" viewBox="0 0 58 58" fill="none" xmlns="http://www.w3.org/2000/svg">
<path d="M53.7027 14.6963H48.5713V18.1855H53.7027V14.6963Z" stroke="#232323" stroke-width="2" stroke-linecap="round" stroke-linejoin="round"/>
<path d="M56.9369 6.76055C56.9324 5.78758 56.6822 4.83143 56.2093 3.98052C55.7363 3.1296 55.056 2.4114 54.2312 1.89232C53.4064 1.37323 52.4637 1.07003 51.4903 1.01075C50.5169 0.95147 49.5443 1.13802 48.6623 1.55315C47.7803 1.96829 47.0175 2.5986 46.4443 3.3858C45.8712 4.17301 45.5062 5.09169 45.3832 6.0569C45.2602 7.02211 45.3831 8.00269 45.7406 8.90795C46.098 9.81321 46.6785 10.6139 47.4283 11.2361V12.9465L48.5711 14.6911H53.714L54.8569 12.9465V11.2361C55.5127 10.6891 56.0392 10.0042 56.3988 9.23054C56.7584 8.45683 56.9421 7.61338 56.9369 6.76055V6.76055Z" stroke="#232323" stroke-width="2" stroke-linecap="round" stroke-linejoin="round"/>
<path d="M8.13185 46.3162C9.93703 46.3162 11.4004 44.8562 11.4004 43.0551C11.4004 41.254 9.93703 39.7939 8.13185 39.7939C6.32667 39.7939 4.86328 41.254 4.86328 43.0551C4.86328 44.8562 6.32667 46.3162 8.13185 46.3162Z" stroke="#232323" stroke-width="2" stroke-linecap="round" stroke-linejoin="round"/>
<path d="M8.13142 46.3155C6.24104 46.3155 4.428 47.0643 3.09077 48.3975C1.75353 49.7306 1.00151 51.5389 1 53.425V56.9997H15.2857V53.425C15.2857 52.489 15.1005 51.5621 14.7406 50.6977C14.3807 49.8333 13.8533 49.0483 13.1885 48.3877C12.5238 47.7272 11.7349 47.2041 10.8671 46.8485C9.99926 46.4929 9.06959 46.3117 8.13142 46.3155V46.3155Z" stroke="#232323" stroke-width="2" stroke-linecap="round" stroke-linejoin="round"/>
<path d="M40.6345 9.52539L10.7429 9.52539C9.4615 9.52539 8.19271 9.77757 7.00916 10.2675C5.82561 10.7575 4.75056 11.4755 3.84555 12.3806C2.94054 13.2857 2.22336 14.36 1.73509 15.542C1.24681 16.724 0.997021 17.9905 1.00003 19.2689C1.00002 20.5441 1.25223 21.8068 1.74221 22.9846C2.23218 24.1624 2.95029 25.2321 3.85537 26.1325C4.76045 27.0328 5.83472 27.7462 7.01661 28.2316C8.1985 28.717 9.46478 28.9649 10.7429 28.9611H11.9715" stroke="#232323" stroke-width="2" stroke-linecap="round" stroke-linejoin="round"/>
<path d="M19.3311 48.4255H47.2853C49.8617 48.4255 52.3326 47.4043 54.1544 45.5867C55.9761 43.769 56.9996 41.3038 56.9996 38.7332V38.7332C56.9996 36.1627 55.9761 33.6974 54.1544 31.8798C52.3326 30.0622 49.8617 29.041 47.2853 29.041H46.0282" stroke="#232323" stroke-width="2" stroke-linecap="round" stroke-linejoin="round"/>
<path d="M41.7364 30.4374V27.5355L37.8392 27.0509C37.6094 26.0102 37.1974 25.0182 36.6221 24.1204L39.0335 21.0246L36.9992 18.9721L33.8792 21.3838C32.9798 20.805 31.9828 20.3936 30.9364 20.1694L30.4564 16.2754H27.5421L27.0621 20.1694C26.0157 20.3936 25.0187 20.805 24.1193 21.3838L20.9993 18.9721L18.9421 21.0246L21.3535 24.1204C20.7782 25.0182 20.3662 26.0102 20.1364 27.0509L16.2393 27.5355V30.4374L20.1364 30.922C20.3662 31.9627 20.7782 32.9547 21.3535 33.8525L18.965 36.9483L20.9993 39.0008L24.0964 36.5948C24.9983 37.1689 25.9944 37.58 27.0393 37.8092L27.5193 41.6975H30.4335L30.9135 37.8092C31.9584 37.58 32.9545 37.1689 33.8564 36.5948L36.9992 39.0008C38.2221 37.7864 37.8392 38.1684 39.0564 36.9483L36.645 33.8525C37.2203 32.9547 37.6323 31.9627 37.8621 30.922L41.7364 30.4374Z" stroke="#232323" stroke-width="2" stroke-linecap="round" stroke-linejoin="round"/>
<path d="M28.6973 34.5538C31.7774 34.5538 34.2744 32.0625 34.2744 28.9893C34.2744 25.9161 31.7774 23.4248 28.6973 23.4248C25.6171 23.4248 23.1201 25.9161 23.1201 28.9893C23.1201 32.0625 25.6171 34.5538 28.6973 34.5538Z" stroke="#232323" stroke-width="2" stroke-linecap="round" stroke-linejoin="round"/>
</svg>
