<svg width="58" height="58" viewBox="0 0 58 58" fill="none" xmlns="http://www.w3.org/2000/svg">
<path d="M8.6608 41.1912H1V1H57V41.1912H49.3392" stroke="#232323" stroke-width="2" stroke-linecap="round" stroke-linejoin="round"/>
<path d="M51.6968 1H1V6.3032H51.6968V1Z" stroke="#232323" stroke-width="2" stroke-linecap="round" stroke-linejoin="round"/>
<path d="M57.0005 1H51.6973V6.3032H57.0005V1Z" stroke="#232323" stroke-width="2" stroke-linecap="round" stroke-linejoin="round"/>
<path d="M28.9998 56.9996C40.5885 56.9996 49.983 47.6051 49.983 36.0164C49.983 24.4277 40.5885 15.0332 28.9998 15.0332C17.4111 15.0332 8.0166 24.4277 8.0166 36.0164C8.0166 47.6051 17.4111 56.9996 28.9998 56.9996Z" stroke="#232323" stroke-width="2" stroke-linecap="round" stroke-linejoin="round"/>
<path d="M28.9999 56.9996C38.1886 56.9996 45.6375 47.6051 45.6375 36.0164C45.6375 24.4277 38.1886 15.0332 28.9999 15.0332C19.8112 15.0332 12.3623 24.4277 12.3623 36.0164C12.3623 47.6051 19.8112 56.9996 28.9999 56.9996Z" stroke="#232323" stroke-width="2" stroke-linecap="round" stroke-linejoin="round"/>
<path d="M28.9999 56.9996C33.8216 56.9996 37.7303 47.6051 37.7303 36.0164C37.7303 24.4277 33.8216 15.0332 28.9999 15.0332C24.1783 15.0332 20.2695 24.4277 20.2695 36.0164C20.2695 47.6051 24.1783 56.9996 28.9999 56.9996Z" stroke="#232323" stroke-width="2" stroke-linecap="round" stroke-linejoin="round"/>
<path d="M8.0166 36.0166H49.983" stroke="#232323" stroke-width="2" stroke-linecap="round" stroke-linejoin="round"/>
<path d="M29 15.0332V56.9996" stroke="#232323" stroke-width="2" stroke-linecap="round" stroke-linejoin="round"/>
</svg>
