<svg width="56" height="56" viewBox="0 0 56 56" fill="none" xmlns="http://www.w3.org/2000/svg">
<g clip-path="url(#clip0_404_8895)">
<path d="M30.7995 28.9336C30.2395 28.9336 29.8662 29.3069 29.8662 29.8669V39.2002C29.8662 39.7601 30.2395 40.1334 30.7995 40.1334C31.3595 40.1334 31.7328 39.7601 31.7328 39.2002V29.8669C31.7328 29.3069 31.3595 28.9336 30.7995 28.9336Z" fill="#232323"/>
<path d="M54.1333 8.39999H50.4C49.3733 8.39999 48.5333 9.23998 48.5333 10.2667V11.2H35.4667V7.46671H36.3999C37.4266 7.46671 38.2666 6.62672 38.2666 5.60003V1.86668C38.2666 0.839988 37.4266 0 36.3999 0H19.5999C18.5733 0 17.7333 0.839988 17.7333 1.86668V5.60003C17.7333 6.62672 18.5733 7.46671 19.5999 7.46671H20.5332V29.8666H7.46671V28.9333C7.46671 27.9066 6.62672 27.0667 5.60003 27.0667H1.86668C0.839988 27.0667 0 27.9066 0 28.9333V45.7333C0 46.76 0.839988 47.6 1.86668 47.6H5.60003C6.62672 47.6 7.46671 46.76 7.46671 45.7333V44.8H20.5333V48.5334H19.6001C18.5734 48.5334 17.7334 49.3734 17.7334 50.4001V54.1334C17.7334 55.1601 18.5734 56.0001 19.6001 56.0001H36.4C37.4267 56.0001 38.2667 55.1601 38.2667 54.1334V50.4001C38.2667 49.3734 37.4267 48.5334 36.4 48.5334H35.4668V26.1333H48.5334V27.0665C48.5334 28.0932 49.3734 28.9332 50.4001 28.9332H54.1334C55.1601 28.9332 56.0001 28.0932 56.0001 27.0665V10.2667C56 9.23998 55.1599 8.39999 54.1333 8.39999ZM19.5999 1.86668H36.3999V5.60003H34.5333H21.4666H19.5999V1.86668ZM5.60003 45.7333H1.86668V28.9333H5.60003V30.8V43.8666V45.7333ZM36.3999 54.1333H19.5999V50.4H21.4666H34.5333H36.3999V54.1333ZM34.5333 24.2666C33.9733 24.2666 33.6 24.6399 33.6 25.1999V48.5332H31.7333V44.7998C31.7333 44.2398 31.36 43.8665 30.8 43.8665C30.24 43.8665 29.8667 44.2398 29.8667 44.7998V48.5332H22.4V43.8665C22.4 43.3065 22.0267 42.9333 21.4667 42.9333H7.46671V31.7333H21.4667C22.0267 31.7333 22.4 31.36 22.4 30.8V7.46671H33.6V12.1333C33.6 12.6933 33.9733 13.0666 34.5333 13.0666H48.5333V20.5333H45.7333C45.1733 20.5333 44.8 20.9066 44.8 21.4666C44.8 22.0266 45.1733 22.3999 45.7333 22.3999H48.5333V24.2666H34.5333ZM54.1333 27.0667H50.4V25.2V12.1333V10.2667H54.1333V27.0667Z" fill="#232323"/>
<path d="M38.2662 20.5332H30.7995C30.2395 20.5332 29.8662 20.9065 29.8662 21.4665V25.1998C29.8662 25.7598 30.2395 26.1331 30.7995 26.1331C31.3595 26.1331 31.7328 25.7598 31.7328 25.1998V22.3999H38.2661C38.8261 22.3999 39.1994 22.0266 39.1994 21.4666C39.1994 20.9066 38.8262 20.5332 38.2662 20.5332Z" fill="#232323"/>
</g>
<defs>
<clipPath id="clip0_404_8895">
<rect width="56" height="56" fill="white"/>
</clipPath>
</defs>
</svg>
