<svg width="60" height="56" viewBox="0 0 60 56" fill="none" xmlns="http://www.w3.org/2000/svg">
<path d="M1 54.5H3.5M3.5 54.5V17L22.5 6L56 22V54.5H59H3.5Z" stroke="black" stroke-width="2" stroke-linejoin="round"/>
<path d="M1 54.5H9.5H19.5" stroke="black" stroke-width="2" stroke-linecap="round" stroke-linejoin="round"/>
<path d="M53.5 15.6389L58.5 18V23L22.5 6.5L3.5 17L1.5 18V13L22.5 1L46.5 12.3333M53.5 15.6389V7.5H46.5V12.3333M53.5 15.6389L46.5 12.3333M17.9286 15L22.5 12.3333L27 14V29.5H17.75M17.9286 15L8.5 20.5V29.5H17.75M17.9286 15L17.75 29.5M17.75 34.5H27V49.5H17.75M17.75 34.5H8.5V49.5H17.75M17.75 34.5V49.5M41.5 49.5H32V34.5H41.5M41.5 49.5H51V34.5H41.5M41.5 49.5V34.5M41.5 29.5H32V16.5L41.5 20.75M41.5 29.5H51V25L41.5 20.75M41.5 29.5V20.75" stroke="black" stroke-width="2" stroke-linejoin="round"/>
</svg>
