<svg width="56" height="56" viewBox="0 0 56 56" fill="none" xmlns="http://www.w3.org/2000/svg">
<path d="M35.5 44.5V33H39M35.5 44.5V55M35.5 44.5H31.5M35.5 44.5H39M35.5 55H24.5V44.5H28M35.5 55H46V44.5M28 44.5V47.5H31.5V44.5M28 44.5H31.5M46 44.5V33H43M46 44.5H43M39 44.5V47.5H43V44.5M39 44.5H43M39 33V36.5H43V33M39 33H43M5.5 25V21.5H50V25M5.5 25H50M5.5 25V28.5M50 25V28.5M50 28.5V55H54.5V16L28 1L1 16V55H5.5V28.5M50 28.5H5.5M23.5 14V18H32.5V14H23.5Z" stroke="black" stroke-width="2" stroke-linecap="round" stroke-linejoin="round"/>
</svg>
