<svg width="41" height="57" viewBox="0 0 41 57" fill="none" xmlns="http://www.w3.org/2000/svg">
<path d="M15.5 19.5V22M15.5 22H2.5V18L9 16.0139M15.5 22H4.5C4.5 33 4.5 55.2 4.5 56H36V22H25.5M15.5 22H25.5M25.5 19.5V22M25.5 22H37.5V18L32 16.2206M19.5 27H21.5M29 27H31.5M9.5 27H12.5M21.5 36L18 41.5H23L20 47M1 56H40M9 16.0139L4.5 2.5L8.5 1L13.5 14.6389M9 16.0139L13.5 14.6389M13.5 14.6389L20.5 12.5L27.5 14.7647M27.5 14.7647L32 1L36.5 2.5L32 16.2206M27.5 14.7647L32 16.2206M5.5 13L14.5 10M12.5 4.5L3 7.5M28.5 5L37.5 7.5M26.5 10L36 13M20 32C25 32 30 35 30 41.5C30 47.5 24 50.5 20 50.5C16 50.5 11 47.5 11 41.5C11 35.5 15 32 20 32Z" stroke="black" stroke-opacity="0.5" stroke-width="2" stroke-linecap="round" stroke-linejoin="round"/>
</svg>
