<svg width="49" height="56" viewBox="0 0 49 56" fill="none" xmlns="http://www.w3.org/2000/svg">
<path d="M30.5 16H26.5V22H28.5M30.5 16V6.5H34V16M30.5 16H34M34 16H47.5V22H45.5M28.5 22C28.5 25.6667 29.4 33.9 33 37.5M28.5 22H45.5M33 37.5C37.4 37.5 40.1667 37.5 41 37.5M33 37.5V43H35M41 37.5C42.8333 35.8333 46.3 30.4 45.5 22M41 37.5V43H39M39 43V54.5H35V43M39 43H35M1 1V14.5H21V1H1ZM5 4H9.25V11.5H5V7.75V4ZM13.25 4V11.5H17.5V4H13.25ZM16 23L2 38.5H13.25L9.25 53L23.5 35H12L16 23ZM40 16V6.5H43.5V16H40Z" stroke="black" stroke-width="2" stroke-linecap="round" stroke-linejoin="round"/>
</svg>
