<svg width="57" height="57" viewBox="0 0 57 57" fill="none" xmlns="http://www.w3.org/2000/svg">
<path d="M6.5 22V56H50V22M11.6579 12.5L1 20L3.5 23.5L28 6.5L53 23.5L55.5 20L28 1L17.5 8.38889M11.6579 12.5C11.5316 12.1 11.6053 7 11.6579 4.5H17.5V8.38889M11.6579 12.5L17.5 8.38889M16.5 34C15.8333 29.6667 18.5 19 28 19C41.5 19 41 34 40.5 34M16.5 38.5C17.6667 38.1667 20 36.8 20 34C20 30.5 21 23 28 23C35 23 37 28 36.5 34C36.2509 36.9896 38.5 38.5 40.5 38.5" stroke="black" stroke-opacity="0.5" stroke-width="2" stroke-linecap="round" stroke-linejoin="round"/>
<path d="M18 42C19.8333 41.8333 23.5 40.6 23.5 37C23.5 32.5 23 26.5 28 26.5C33 26.5 33 31.5 33 37C33 41.4 37.3333 42.1667 39.5 42M21.5 45.5C24.5 44.6667 30.1 40.7 28.5 31.5M30.5 41.5C31.1667 42.8333 33.3 45.5 36.5 45.5M24.5 48.5C25.5 48 27 47.5 29.5 44M28 50.5C29 50 31.1 48.6 31.5 47C32 45 32.5 50 36 50" stroke="black" stroke-opacity="0.5" stroke-width="2" stroke-linecap="round" stroke-linejoin="round"/>
</svg>
