<svg width="61" height="56" viewBox="0 0 61 56" fill="none" xmlns="http://www.w3.org/2000/svg">
<path d="M1 38.5V1H60V38.5M1 38.5V43H23.5M1 38.5H60M60 38.5V43H38.5M15 35H38M47 31.5H24M15 31.5H15.5M18 31.5H21M40.5 35H44M46.5 35H47M37 17H31M15 17V4.5H31M15 17V27.5H25.5M15 17H31M31 4.5H47V17M31 4.5V8M35 9.5L31 13V17M25.5 17.5V27.5M25.5 27.5H47V17M40.5 20.5C40.5 19.7 42.8333 17.8333 44 17H47M23.5 43L21 50M23.5 43H38.5M21 50H17.5V51V54.5H44V50H40.5M21 50H40.5M40.5 50L38.5 43" stroke="black" stroke-width="2" stroke-linecap="round" stroke-linejoin="round"/>
</svg>
