<svg width="26" height="25" viewBox="0 0 26 25" fill="none" xmlns="http://www.w3.org/2000/svg">
<path d="M24.1617 9.87881C23.8292 9.65559 23.5288 9.38774 23.2691 9.08287C23.2884 8.65825 23.3737 8.23937 23.5221 7.84113C23.8009 6.89719 24.1482 5.7225 23.4789 4.80324C22.8048 3.87676 21.5734 3.84564 20.5841 3.82034C20.168 3.83694 19.7516 3.79224 19.3485 3.68753C19.1269 3.33982 18.9576 2.96146 18.8462 2.56438C18.5161 1.62432 18.1049 0.45429 17.0036 0.0963337C15.9351 -0.250912 14.9761 0.408885 14.1305 0.989127C13.7907 1.26047 13.4092 1.47492 13.0008 1.62424C12.5921 1.47515 12.2104 1.26062 11.8706 0.989127C11.025 0.408419 10.0656 -0.249359 8.99737 0.0963337C7.89642 0.45429 7.48529 1.6237 7.15481 2.564C7.04367 2.95905 6.87626 3.33602 6.65785 3.68342C6.25341 3.7913 5.83499 3.83733 5.4168 3.81994C4.42761 3.84517 3.19619 3.87637 2.52211 4.80285C1.85284 5.72258 2.20009 6.89734 2.47888 7.84128C2.62549 8.23742 2.71164 8.65336 2.73423 9.07511C2.4757 9.3844 2.17424 9.65505 1.83911 9.87889C1.04092 10.4876 0.0478516 11.2454 0.0478516 12.4181C0.0478516 13.5909 1.04092 14.3487 1.83926 14.9574C2.17176 15.1807 2.47213 15.4485 2.73182 15.7534C2.7125 16.178 2.6272 16.5968 2.4788 16.9951C2.20001 17.939 1.85277 19.1139 2.52203 20.033C3.19611 20.9595 4.42753 20.9907 5.4168 21.016C5.83297 20.9993 6.24929 21.044 6.65242 21.1488C6.87408 21.4965 7.04336 21.8749 7.15474 22.2719C7.48514 23.2121 7.89626 24.3821 8.99745 24.74C9.19257 24.804 9.39662 24.8366 9.60198 24.8365C10.4307 24.8365 11.1876 24.3163 11.8706 23.8472C12.2104 23.5758 12.592 23.3614 13.0004 23.212C13.409 23.3611 13.7907 23.5757 14.1307 23.8471C14.9763 24.4279 15.9353 25.0851 17.0039 24.7399C18.1048 24.382 18.516 23.2125 18.8464 22.2722C18.9576 21.8772 19.1249 21.5002 19.3434 21.1528C19.7478 21.0449 20.1662 20.9989 20.5844 21.0163C21.5736 20.991 22.8051 20.9599 23.4791 20.0334C24.1484 19.1137 23.8012 17.9389 23.5223 16.9949C23.3757 16.5988 23.2896 16.1829 23.2669 15.7611C23.5255 15.4519 23.8269 15.1812 24.1621 14.9574C24.96 14.3487 25.953 13.5909 25.953 12.4181C25.9531 11.2454 24.96 10.4876 24.1617 9.87881ZM17.8114 10.4828L12.4144 15.8798C11.993 16.3012 11.3098 16.3014 10.8883 15.88C10.8884 15.8801 10.8882 15.8799 10.8883 15.88L8.18956 13.1813C7.76268 12.7651 7.75399 12.0817 8.17016 11.6549C8.58632 11.2281 9.26972 11.2194 9.69652 11.6355C9.70312 11.6419 9.70955 11.6483 9.71592 11.6549L11.6512 13.5902L16.2849 8.95644C16.7011 8.52957 17.3845 8.52095 17.8114 8.93712C18.2382 9.35321 18.2468 10.0366 17.8307 10.4635C17.8243 10.4701 17.8178 10.4764 17.8114 10.4828Z" fill="#EF7728"/>
</svg>
